<?xml version="1.0" encoding="UTF-8" standalone="no"?><svg xmlns="http://www.w3.org/2000/svg" xmlns:xlink="http://www.w3.org/1999/xlink" contentStyleType="text/css" height="538px" preserveAspectRatio="none" style="width:2150px;height:538px;background:#FFFFFF;" version="1.1" viewBox="0 0 2150 538" width="2150px" zoomAndPan="magnify"><defs/><g><!--MD5=[bc5cfb6f659265949d29b23f39cdf5e7]
class Broker--><g id="elem_Broker"><rect codeLine="2" fill="#F1F1F1" height="260.8828" id="Broker" rx="5" ry="5" style="stroke:#181818;stroke-width:1.0;" width="1116" x="14" y="14"/><ellipse cx="518.5" cy="46" fill="#ADD1B2" rx="22" ry="22" style="stroke:#181818;stroke-width:2.0;"/><path d="M523.4463,58.2861 Q522.2842,58.8838 521.0059,59.1826 Q519.7275,59.4814 518.3164,59.4814 Q513.3027,59.4814 510.6631,56.1777 Q508.0234,52.874 508.0234,46.6318 Q508.0234,40.373 510.6631,37.0693 Q513.3027,33.7656 518.3164,33.7656 Q519.7275,33.7656 521.0225,34.0645 Q522.3174,34.3633 523.4463,34.9609 L523.4463,40.4063 Q522.1846,39.2441 520.9976,38.7046 Q519.8105,38.165 518.5488,38.165 Q515.8594,38.165 514.4897,40.2983 Q513.1201,42.4316 513.1201,46.6318 Q513.1201,50.8154 514.4897,52.9487 Q515.8594,55.082 518.5488,55.082 Q519.8105,55.082 520.9976,54.5425 Q522.1846,54.0029 523.4463,52.8408 Z " fill="#000000"/><text fill="#000000" font-family="sans-serif" font-size="28" lengthAdjust="spacing" textLength="90" x="559.5" y="56.582">Broker</text><line style="stroke:#181818;stroke-width:1.0;" x1="16" x2="1128" y1="78" y2="78"/><text fill="#000000" font-family="sans-serif" font-size="28" lengthAdjust="spacing" textLength="16" x="26" y="113.0703">-</text><text fill="#000000" font-family="sans-serif" font-size="28" font-weight="bold" lengthAdjust="spacing" textLength="956" x="42" y="113.0703">openForOrderSubscribers : List&lt;OpenForOrdersCallbackInterface&gt;</text><line style="stroke:#181818;stroke-width:1.0;" x1="16" x2="1128" y1="126.9766" y2="126.9766"/><text fill="#000000" font-family="sans-serif" font-size="28" lengthAdjust="spacing" text-decoration="underline" textLength="290" x="26" y="162.0469">+getBroker() : Broker</text><text fill="#000000" font-family="sans-serif" font-size="28" lengthAdjust="spacing" textLength="354" x="26" y="195.0234">+buy(order : Order) : void</text><text fill="#000000" font-family="sans-serif" font-size="28" lengthAdjust="spacing" textLength="262" x="26" y="228">+isBusy() : boolean</text><text fill="#000000" font-family="sans-serif" font-size="28" lengthAdjust="spacing" textLength="22" x="26" y="260.9766">+</text><text fill="#000000" font-family="sans-serif" font-size="28" font-weight="bold" lengthAdjust="spacing" textLength="1070" x="48" y="260.9766">addOpenForOrderSubscriber(subscriber : OpenForOrdersCallbackInterface)</text></g><!--MD5=[e5ba995f572354ab3d6adf9227f4c70c]
class OpenForOrdersCallbackInterface--><g id="elem_OpenForOrdersCallbackInterface"><rect codeLine="11" fill="#F1F1F1" height="128.9766" id="OpenForOrdersCallbackInterface" rx="5" ry="5" style="stroke:#181818;stroke-width:1.0;" width="514" x="1623" y="80"/><ellipse cx="1653" cy="112" fill="#B4A7E5" rx="22" ry="22" style="stroke:#181818;stroke-width:2.0;"/><path d="M1645.8555,104.5303 L1645.8555,100.2139 L1660.6143,100.2139 L1660.6143,104.5303 L1655.6836,104.5303 L1655.6836,120.6836 L1660.6143,120.6836 L1660.6143,125 L1645.8555,125 L1645.8555,120.6836 L1650.7861,120.6836 L1650.7861,104.5303 Z " fill="#000000"/><text fill="#000000" font-family="sans-serif" font-size="28" font-style="italic" lengthAdjust="spacing" textLength="450" x="1681" y="122.582">OpenForOrdersCallbackInterface</text><line style="stroke:#181818;stroke-width:1.0;" x1="1625" x2="2135" y1="144" y2="144"/><line style="stroke:#181818;stroke-width:1.0;" x1="1625" x2="2135" y1="160" y2="160"/><text fill="#000000" font-family="sans-serif" font-size="28" font-weight="bold" lengthAdjust="spacing" textLength="322" x="1635" y="195.0703">openForOrders() : void</text></g><!--MD5=[ed818817f21039c8ca945aa1b3877a09]
class BrokerBusyException--><g id="elem_BrokerBusyException"><rect codeLine="16" fill="#F1F1F1" height="96" id="BrokerBusyException" rx="5" ry="5" style="stroke:#181818;stroke-width:1.0;" width="352" x="396" y="428"/><ellipse cx="426" cy="460" fill="#D94321" rx="22" ry="22" style="stroke:#181818;stroke-width:2.0;"/><path d="M435.0215,473 L429.958,473 L425.2266,464.7988 L420.5117,473 L415.4482,473 L422.7197,460.416 L415.6475,448.2139 L420.7109,448.2139 L425.2266,456.0996 L429.7588,448.2139 L434.8223,448.2139 L427.7832,460.416 Z " fill="#000000"/><text fill="#000000" font-family="sans-serif" font-size="28" lengthAdjust="spacing" textLength="288" x="454" y="470.582">BrokerBusyException</text><line style="stroke:#181818;stroke-width:1.0;" x1="398" x2="746" y1="492" y2="492"/><line style="stroke:#181818;stroke-width:1.0;" x1="398" x2="746" y1="508" y2="508"/></g><!--MD5=[20518d76fbd47cbdb46f10a13ce35bc7]
link Broker to BrokerBusyException--><g id="link_Broker_BrokerBusyException"><path codeLine="20" d="M572,274.7 C572,323.48 572,376.66 572,415.8 " fill="none" id="Broker-to-BrokerBusyException" style="stroke:#181818;stroke-width:2.0;"/><polygon fill="#181818" points="572,425.48,580,407.48,572,415.48,564,407.48,572,425.48" style="stroke:#181818;stroke-width:2.0;"/><text fill="#000000" font-family="sans-serif" font-size="26" lengthAdjust="spacing" textLength="632" x="574" y="361.1367">throws when buy() is called and the broker is busy</text></g><!--MD5=[04d6989b00170845fbb3eb90f2469a25]
link Broker to OpenForOrdersCallbackInterface--><g id="link_Broker_OpenForOrdersCallbackInterface"><path codeLine="21" d="M1130.5,144 C1296.98,144 1471.9,144 1610.84,144 " fill="none" id="Broker-to-OpenForOrdersCallbackInterface" style="stroke:#181818;stroke-width:2.0;"/><polygon fill="#181818" points="1620.48,144,1602.48,136,1610.48,144,1602.48,152,1620.48,144" style="stroke:#181818;stroke-width:2.0;"/><text fill="#000000" font-family="sans-serif" font-size="26" lengthAdjust="spacing" textLength="408" x="1172.5" y="101.1367">Each subscriber is notified when</text><text fill="#000000" font-family="sans-serif" font-size="26" lengthAdjust="spacing" textLength="420" x="1166.5" y="131.7578">the broker is open for new orders</text></g><!--MD5=[0bc485dcae943115aca4e772fa831e2f]
@startuml Broker
skinparam classAttributeIconSize 0
class Broker
{
    -**openForOrderSubscribers : List<OpenForOrdersCallbackInterface>**
    +{static} getBroker() : Broker
    +buy(order : Order) : void
    +isBusy() : boolean
    +**addOpenForOrderSubscriber(subscriber : OpenForOrdersCallbackInterface)**
}

interface OpenForOrdersCallbackInterface
{
    **openForOrders() : void**
}

exception BrokerBusyException
{
}

Broker - -> BrokerBusyException : throws when buy() is called and the broker is busy
Broker -> OpenForOrdersCallbackInterface : Each subscriber is notified when\nthe broker is open for new orders
@enduml

PlantUML version 1.2022.12(Sun Oct 23 20:12:26 CEST 2022)
(GPL source distribution)
Java Runtime: OpenJDK Runtime Environment
JVM: OpenJDK 64-Bit Server VM
Default Encoding: UTF-8
Language: en
Country: DK
--></g></svg>