<?xml version="1.0" encoding="UTF-8" standalone="no"?><svg xmlns="http://www.w3.org/2000/svg" xmlns:xlink="http://www.w3.org/1999/xlink" contentStyleType="text/css" height="936px" preserveAspectRatio="none" style="width:912px;height:936px;background:#FFFFFF;" version="1.1" viewBox="0 0 912 936" width="912px" zoomAndPan="magnify"><defs/><g><!--MD5=[cf4d6237fcae255cd2e1656cf84a30e2]
class Order--><g id="elem_Order"><rect codeLine="2" fill="#F1F1F1" height="425.7656" id="Order" rx="5" ry="5" style="stroke:#181818;stroke-width:1.0;" width="608" x="151" y="182"/><ellipse cx="406.5" cy="214" fill="#ADD1B2" rx="22" ry="22" style="stroke:#181818;stroke-width:2.0;"/><path d="M411.4463,226.2861 Q410.2842,226.8838 409.0059,227.1826 Q407.7275,227.4814 406.3164,227.4814 Q401.3027,227.4814 398.6631,224.1777 Q396.0234,220.874 396.0234,214.6318 Q396.0234,208.373 398.6631,205.0693 Q401.3027,201.7656 406.3164,201.7656 Q407.7275,201.7656 409.0225,202.0645 Q410.3174,202.3633 411.4463,202.9609 L411.4463,208.4063 Q410.1846,207.2441 408.9976,206.7046 Q407.8105,206.165 406.5488,206.165 Q403.8594,206.165 402.4897,208.2983 Q401.1201,210.4316 401.1201,214.6318 Q401.1201,218.8154 402.4897,220.9487 Q403.8594,223.082 406.5488,223.082 Q407.8105,223.082 408.9976,222.5425 Q410.1846,222.0029 411.4463,220.8408 Z " fill="#000000"/><text fill="#000000" font-family="sans-serif" font-size="28" lengthAdjust="spacing" textLength="80" x="447.5" y="224.582">Order</text><line style="stroke:#181818;stroke-width:1.0;" x1="153" x2="757" y1="246" y2="246"/><text fill="#000000" font-family="sans-serif" font-size="28" lengthAdjust="spacing" textLength="144" x="163" y="281.0703">-units : int</text><text fill="#000000" font-family="sans-serif" font-size="28" lengthAdjust="spacing" textLength="238" x="163" y="314.0469">-symbol : Symbol</text><text fill="#000000" font-family="sans-serif" font-size="28" lengthAdjust="spacing" textLength="304" x="163" y="347.0234">-pricePerUnit : double</text><text fill="#000000" font-family="sans-serif" font-size="28" lengthAdjust="spacing" textLength="584" x="163" y="380">-status : OrderStatus = OrderStatus.Placed</text><text fill="#000000" font-family="sans-serif" font-size="28" lengthAdjust="spacing" textLength="216" x="163" y="453.9531">+getUnits() : int</text><text fill="#000000" font-family="sans-serif" font-size="28" lengthAdjust="spacing" textLength="310" x="163" y="486.9297">+getSymbol() : Symbol</text><text fill="#000000" font-family="sans-serif" font-size="28" lengthAdjust="spacing" textLength="372" x="163" y="519.9063">+getPricePerUnit() : double</text><line style="stroke:#181818;stroke-width:2.0;stroke-dasharray:1.0,2.0;" x1="153" x2="407" y1="410.3945" y2="410.3945"/><text fill="#000000" font-family="sans-serif" font-size="28" lengthAdjust="spacing" textLength="96" x="407" y="419.9766">getters</text><line style="stroke:#181818;stroke-width:2.0;stroke-dasharray:1.0,2.0;" x1="503" x2="757" y1="410.3945" y2="410.3945"/><text fill="#000000" font-family="sans-serif" font-size="28" lengthAdjust="spacing" textLength="436" x="163" y="593.8594">+setStatus(status : OrderStatus)</text><line style="stroke:#181818;stroke-width:2.0;stroke-dasharray:1.0,2.0;" x1="153" x2="409" y1="550.3008" y2="550.3008"/><text fill="#000000" font-family="sans-serif" font-size="28" lengthAdjust="spacing" textLength="92" x="409" y="559.8828">setters</text><line style="stroke:#181818;stroke-width:2.0;stroke-dasharray:1.0,2.0;" x1="501" x2="757" y1="550.3008" y2="550.3008"/></g><!--MD5=[de626c0cb0f072ae90ffb25031374c19]
class OrderStatus--><g id="elem_OrderStatus"><rect codeLine="15" fill="#F1F1F1" height="194.9297" id="OrderStatus" rx="5" ry="5" style="stroke:#181818;stroke-width:1.0;" width="228" x="341" y="728"/><ellipse cx="371" cy="760" fill="#EB937F" rx="22" ry="22" style="stroke:#181818;stroke-width:2.0;"/><path d="M378.2285,773 L362.7891,773 L362.7891,748.2139 L378.2285,748.2139 L378.2285,752.5303 L367.6865,752.5303 L367.6865,757.876 L377.2324,757.876 L377.2324,762.1924 L367.6865,762.1924 L367.6865,768.6836 L378.2285,768.6836 Z " fill="#000000"/><text fill="#000000" font-family="sans-serif" font-size="28" lengthAdjust="spacing" textLength="164" x="399" y="770.582">OrderStatus</text><line style="stroke:#181818;stroke-width:1.0;" x1="343" x2="567" y1="792" y2="792"/><text fill="#000000" font-family="sans-serif" font-size="28" lengthAdjust="spacing" textLength="88" x="353" y="827.0703">Placed</text><text fill="#000000" font-family="sans-serif" font-size="28" lengthAdjust="spacing" textLength="110" x="353" y="860.0469">Fulfilled</text><text fill="#000000" font-family="sans-serif" font-size="28" lengthAdjust="spacing" textLength="116" x="353" y="893.0234">Rejected</text><line style="stroke:#181818;stroke-width:1.0;" x1="343" x2="567" y1="906.9297" y2="906.9297"/></g><g id="elem_GMN4"><path d="M12,12 L12,62.6211 A0,0 0 0 0 12,62.6211 L447,62.6211 L455,181.38 L463,62.6211 L898,62.6211 A0,0 0 0 0 898,62.6211 L898,32 L878,12 L12,12 A0,0 0 0 0 12,12 " fill="#FEFFDD" style="stroke:#181818;stroke-width:1.0;"/><path d="M878,12 L878,32 L898,32 L878,12 " fill="#FEFFDD" style="stroke:#181818;stroke-width:1.0;"/><text fill="#000000" font-family="sans-serif" font-size="26" lengthAdjust="spacing" textLength="844" x="24" y="47.1367">New orders will automatically get the "Placed" status when created.</text></g><!--MD5=[d7a12ed011a57068e70e07d9626e1fb6]
link Order to OrderStatus--><g id="link_Order_OrderStatus"><path codeLine="24" d="M455,608.76 C455,645.76 455,682.82 455,715.46 " fill="none" id="Order-to-OrderStatus" style="stroke:#181818;stroke-width:2.0;stroke-dasharray:7.0,7.0;"/><polygon fill="#181818" points="455,725.28,463,707.28,455,715.28,447,707.28,455,725.28" style="stroke:#181818;stroke-width:2.0;"/></g><!--MD5=[f3fcf4e16419353b83c34faae2dcaf93]
@startuml Order
skinparam classAttributeIconSize 0
class Order {
    - units : int
    - symbol : Symbol
    - pricePerUnit : double
    - status : OrderStatus = OrderStatus.Placed
    ..getters..
    + getUnits() : int
    + getSymbol() : Symbol
    + getPricePerUnit() : double
    ..setters..
    + setStatus(status : OrderStatus)
}

enum OrderStatus
{
    Placed
    Fulfilled
    Rejected
}

note top of Order : New orders will automatically get the "Placed" status when created.

Order ..> OrderStatus
@enduml

PlantUML version 1.2022.12(Sun Oct 23 20:12:26 CEST 2022)
(GPL source distribution)
Java Runtime: OpenJDK Runtime Environment
JVM: OpenJDK 64-Bit Server VM
Default Encoding: UTF-8
Language: en
Country: DK
--></g></svg>