<?xml version="1.0" encoding="UTF-8" standalone="no"?><svg xmlns="http://www.w3.org/2000/svg" xmlns:xlink="http://www.w3.org/1999/xlink" contentStyleType="text/css" height="615px" preserveAspectRatio="none" style="width:587px;height:615px;background:#FFFFFF;" version="1.1" viewBox="0 0 587 615" width="587px" zoomAndPan="magnify"><defs/><g><ellipse cx="467.6875" cy="16" fill="#222222" rx="10" ry="10" style="stroke:none;stroke-width:1.0;"/><rect fill="#F1F1F1" height="34.1328" rx="12.5" ry="12.5" style="stroke:#181818;stroke-width:0.5;" width="82" x="426.6875" y="67"/><text fill="#000000" font-family="sans-serif" font-size="12" lengthAdjust="spacing" textLength="62" x="436.6875" y="88.6016">Gets order</text><g id="elem_#5"><polygon fill="#F1F1F1" points="467.6875,154,479.6875,166,467.6875,178,455.6875,166,467.6875,154" style="stroke:#181818;stroke-width:0.5;"/></g><ellipse cx="467.6875" cy="578" fill="none" rx="10" ry="10" style="stroke:#222222;stroke-width:1.0;"/><ellipse cx="468.1875" cy="578.5" fill="#222222" rx="6" ry="6" style="stroke:none;stroke-width:1.0;"/><rect fill="#F1F1F1" height="48.2656" rx="12.5" ry="12.5" style="stroke:#181818;stroke-width:0.5;" width="234" x="108.6875" y="142"/><text fill="#000000" font-family="sans-serif" font-size="12" lengthAdjust="spacing" textLength="214" x="118.6875" y="163.6016">Calculate the total price for the order</text><text fill="#000000" font-family="sans-serif" font-size="12" font-weight="bold" lengthAdjust="spacing" textLength="29" x="118.6875" y="177.7344">Hint:</text><text fill="#000000" font-family="sans-serif" font-size="12" lengthAdjust="spacing" textLength="111" x="151.6875" y="177.7344">pricePerUnit * units</text><rect fill="#F1F1F1" height="34.1328" rx="12.5" ry="12.5" style="stroke:#181818;stroke-width:0.5;" width="325" x="63.1875" y="231"/><text fill="#000000" font-family="sans-serif" font-size="12" lengthAdjust="spacing" textLength="305" x="73.1875" y="252.6016">Update the account balance based on the calculation</text><rect fill="#F1F1F1" height="34.1328" rx="12.5" ry="12.5" style="stroke:#181818;stroke-width:0.5;" width="163" x="144.1875" y="306"/><text fill="#000000" font-family="sans-serif" font-size="12" lengthAdjust="spacing" textLength="143" x="154.1875" y="327.6016">Update the equities map</text><g id="elem_#17"><polygon fill="#F1F1F1" points="225.6875,394,237.6875,406,225.6875,418,213.6875,406,225.6875,394" style="stroke:#181818;stroke-width:0.5;"/></g><rect fill="#F1F1F1" height="34.1328" rx="12.5" ry="12.5" style="stroke:#181818;stroke-width:0.5;" width="258" x="8.6875" y="472"/><text fill="#000000" font-family="sans-serif" font-size="12" lengthAdjust="spacing" textLength="238" x="18.6875" y="493.6016">Get amount already owned of the symbol</text><rect fill="#F1F1F1" height="34.1328" rx="12.5" ry="12.5" style="stroke:#181818;stroke-width:0.5;" width="201" x="14.1875" y="561"/><text fill="#000000" font-family="sans-serif" font-size="12" lengthAdjust="spacing" textLength="181" x="24.1875" y="582.6016">Add amount of bought symbols</text><rect fill="#F1F1F1" height="62.3984" rx="12.5" ry="12.5" style="stroke:#181818;stroke-width:0.5;" width="202" x="235.6875" y="547"/><text fill="#000000" font-family="sans-serif" font-size="12" lengthAdjust="spacing" textLength="182" x="245.6875" y="568.6016">Store the new amount of owned</text><text fill="#000000" font-family="sans-serif" font-size="12" lengthAdjust="spacing" textLength="180" x="245.6875" y="582.7344">symbols in the equities map on</text><text fill="#000000" font-family="sans-serif" font-size="12" lengthAdjust="spacing" textLength="107" x="245.6875" y="596.8672">the correct symbol</text><!--MD5=[7b6dc039eb49e6716809632804712530]
link start to Gets order--><g id="link_start_Gets order"><path d="M467.6875,26.46 C467.6875,35.38 467.6875,49.1 467.6875,60.78 " fill="none" id="start-to-Gets order" style="stroke:#181818;stroke-width:1.0;"/><polygon fill="#181818" points="467.6875,65.68,471.6875,56.68,467.6875,60.68,463.6875,56.68,467.6875,65.68" style="stroke:#181818;stroke-width:1.0;"/></g><!--MD5=[12773952d40d48a52492aa34fa2981dd]
link Gets order to #5--><g id="link_Gets order_#5"><path d="M467.6875,101.19 C467.6875,114.65 467.6875,133.77 467.6875,147.57 " fill="none" id="Gets order-to-#5" style="stroke:#181818;stroke-width:1.0;"/><polygon fill="#181818" points="467.6875,152.49,471.6875,143.49,467.6875,147.49,463.6875,143.49,467.6875,152.49" style="stroke:#181818;stroke-width:1.0;"/><text fill="#000000" font-family="sans-serif" font-size="11" lengthAdjust="spacing" textLength="69" x="483.6438" y="143.7848">Check status</text></g><!--MD5=[354e12f5adebb6f1562c7b59ede5ab58]
link #5 to end--><g id="link_#5_end"><path d="M467.6875,178.66 C467.6875,194.24 467.6875,222.69 467.6875,247 C467.6875,247 467.6875,247 467.6875,490 C467.6875,515.16 467.6875,544.4 467.6875,561.77 " fill="none" id="#5-to-end" style="stroke:#181818;stroke-width:1.0;"/><polygon fill="#181818" points="467.6875,566.6,471.6875,557.6,467.6875,561.6,463.6875,557.6,467.6875,566.6" style="stroke:#181818;stroke-width:1.0;"/><text fill="#000000" font-family="sans-serif" font-size="11" lengthAdjust="spacing" textLength="45" x="468.6875" y="371.6348">Status is</text><text fill="#000000" font-family="sans-serif" font-size="11" font-weight="bold" lengthAdjust="spacing" textLength="18" x="516.6875" y="371.6348">not</text><text fill="#000000" font-family="sans-serif" font-size="11" lengthAdjust="spacing" textLength="42" x="537.6875" y="371.6348">Fulfilled</text></g><!--MD5=[6d2582c095d29db7c16b3cadab818454]
reverse link Calculate the total price for the order\n<b>Hint:</b> pricePerUnit * units to #5--><g id="link_Calculate the total price for the order\n&lt;b&gt;Hint:&lt;/b&gt; pricePerUnit * units_#5"><path d="M348.9475,166 C392.0675,166 434.7975,166 455.2375,166 " fill="none" id="Calculate the total price for the order\n&lt;b&gt;Hint:&lt;/b&gt; pricePerUnit * units-backto-#5" style="stroke:#181818;stroke-width:1.0;"/><polygon fill="#181818" points="344.1475,166,353.1475,170,349.1475,166,353.1475,162,344.1475,166" style="stroke:#181818;stroke-width:1.0;"/><text fill="#000000" font-family="sans-serif" font-size="11" lengthAdjust="spacing" textLength="33" x="353.6875" y="160.6348">Status</text><text fill="#000000" font-family="sans-serif" font-size="11" font-weight="bold" lengthAdjust="spacing" textLength="10" x="389.6875" y="160.6348">is</text><text fill="#000000" font-family="sans-serif" font-size="11" lengthAdjust="spacing" textLength="42" x="402.6875" y="160.6348">Fulfilled</text></g><!--MD5=[ddfee50e5795c74cbf6d3ba29a9e7545]
link Calculate the total price for the order\n<b>Hint:</b> pricePerUnit * units to Update the account balance based on the calculation--><g id="link_Calculate the total price for the order\n&lt;b&gt;Hint:&lt;/b&gt; pricePerUnit * units_Update the account balance based on the calculation"><path d="M225.6875,190.14 C225.6875,201.04 225.6875,213.99 225.6875,224.77 " fill="none" id="Calculate the total price for the order\n&lt;b&gt;Hint:&lt;/b&gt; pricePerUnit * units-to-Update the account balance based on the calculation" style="stroke:#181818;stroke-width:1.0;"/><polygon fill="#181818" points="225.6875,229.51,229.6875,220.51,225.6875,224.51,221.6875,220.51,225.6875,229.51" style="stroke:#181818;stroke-width:1.0;"/></g><!--MD5=[be9c60462e728e0d14513bdea715e1b8]
link Update the account balance based on the calculation to Update the equities map--><g id="link_Update the account balance based on the calculation_Update the equities map"><path d="M225.6875,265.2 C225.6875,275.34 225.6875,288.54 225.6875,299.66 " fill="none" id="Update the account balance based on the calculation-to-Update the equities map" style="stroke:#181818;stroke-width:1.0;"/><polygon fill="#181818" points="225.6875,304.59,229.6875,295.59,225.6875,299.59,221.6875,295.59,225.6875,304.59" style="stroke:#181818;stroke-width:1.0;"/></g><!--MD5=[442bc79319a33380e2b71098e472740e]
link Update the equities map to #17--><g id="link_Update the equities map_#17"><path d="M225.6875,340.39 C225.6875,354.02 225.6875,373.38 225.6875,387.35 " fill="none" id="Update the equities map-to-#17" style="stroke:#181818;stroke-width:1.0;"/><polygon fill="#181818" points="225.6875,392.35,229.6875,383.35,225.6875,387.35,221.6875,383.35,225.6875,392.35" style="stroke:#181818;stroke-width:1.0;"/><text fill="#000000" font-family="sans-serif" font-size="11" lengthAdjust="spacing" textLength="200" x="6" y="388.4071">if Equities-Map contains symbol (key)</text></g><!--MD5=[6178676ebb938b866bf89cf6f6584b36]
link #17 to Get amount already owned of the symbol--><g id="link_#17_Get amount already owned of the symbol"><path d="M219.6375,412.57 C207.5075,423.73 179.6775,449.35 159.8175,467.63 " fill="none" id="#17-to-Get amount already owned of the symbol" style="stroke:#181818;stroke-width:1.0;"/><polygon fill="#181818" points="156.4575,470.65,165.7915,467.5073,160.1397,467.2675,160.3795,461.6157,156.4575,470.65" style="stroke:#181818;stroke-width:1.0;"/><text fill="#000000" font-family="sans-serif" font-size="11" lengthAdjust="spacing" textLength="90" x="190.6875" y="449.6348">Contains symbol</text></g><!--MD5=[049b0873a9662cb5591cddd3fcf7f13f]
link Get amount already owned of the symbol to Add amount of bought symbols--><g id="link_Get amount already owned of the symbol_Add amount of bought symbols"><path d="M133.3575,506.36 C129.7275,520.1 124.5175,539.83 120.5175,554.96 " fill="none" id="Get amount already owned of the symbol-to-Add amount of bought symbols" style="stroke:#181818;stroke-width:1.0;"/><polygon fill="#181818" points="118.9975,559.71,125.1518,552.0207,120.2672,554.8739,117.414,549.9893,118.9975,559.71" style="stroke:#181818;stroke-width:1.0;"/></g><!--MD5=[a63c24dea85a0f48992624c665df19f7]
link Add amount of bought symbols to Store the new amount of owned\nsymbols in the equities map on\nthe correct symbol--><g id="link_Add amount of bought symbols_Store the new amount of owned\nsymbols in the equities map on\nthe correct symbol"><path d="M215.2775,578 C219.9475,578 224.6175,578 229.2875,578 " fill="none" id="Add amount of bought symbols-to-Store the new amount of owned\nsymbols in the equities map on\nthe correct symbol" style="stroke:#181818;stroke-width:1.0;"/><polygon fill="#181818" points="234.1975,578,225.1975,574,229.1975,578,225.1975,582,234.1975,578" style="stroke:#181818;stroke-width:1.0;"/></g><!--MD5=[d106be355c8c7a772d002bf053ae4732]
link #17 to Store the new amount of owned\nsymbols in the equities map on\nthe correct symbol--><g id="link_#17_Store the new amount of owned\nsymbols in the equities map on\nthe correct symbol"><path d="M234.8875,409.33 C248.1275,413.15 272.5375,421.97 286.6875,438 C312.4075,467.15 325.1975,510.5 331.3575,541.03 " fill="none" id="#17-to-Store the new amount of owned\nsymbols in the equities map on\nthe correct symbol" style="stroke:#181818;stroke-width:1.0;"/><polygon fill="#181818" points="332.4275,545.57,334.6331,535.9713,331.4716,540.6622,326.7807,537.5007,332.4275,545.57" style="stroke:#181818;stroke-width:1.0;"/><text fill="#000000" font-family="sans-serif" font-size="11" lengthAdjust="spacing" textLength="114" x="323.6875" y="493.6348">Don't contain symbol</text></g><!--MD5=[e6b8e9ea04a93a93251adc7862c0dc45]
link Store the new amount of owned\nsymbols in the equities map on\nthe correct symbol to end--><g id="link_Store the new amount of owned\nsymbols in the equities map on\nthe correct symbol_end"><path d="M438.0075,578 C442.5775,578 447.1375,578 451.7075,578 " fill="none" id="Store the new amount of owned\nsymbols in the equities map on\nthe correct symbol-to-end" style="stroke:#181818;stroke-width:1.0;"/><polygon fill="#181818" points="456.4875,578,447.4875,574,451.4875,578,447.4875,582,456.4875,578" style="stroke:#181818;stroke-width:1.0;"/></g><!--MD5=[a528fdd21ccc3c16560864d704fae547]
@startuml
(*)  -down> "Gets order"
If "Check status" then
  -> [Status is <b>not</b> Fulfilled] (*)
else
  -left->[Status <b>is</b> Fulfilled] "Calculate the total price for the order\n<b>Hint:</b> pricePerUnit * units"
  -down> "Update the account balance based on the calculation"
  -down> "Update the equities map"
  If "if Equities-Map contains symbol (key)" then
    -down->[Contains symbol] "Get amount already owned of the symbol"
    -down> "Add amount of bought symbols"
    -> "Store the new amount of owned\nsymbols in the equities map on\nthe correct symbol"
  else
    -> [Don't contain symbol] "Store the new amount of owned\nsymbols in the equities map on\nthe correct symbol"
  endif
  ->(*)
endif
@enduml

PlantUML version 1.2022.12(Sun Oct 23 20:12:26 CEST 2022)
(GPL source distribution)
Java Runtime: OpenJDK Runtime Environment
JVM: OpenJDK 64-Bit Server VM
Default Encoding: UTF-8
Language: en
Country: DK
--></g></svg>